# xmcd CD database file
#
# Track frame offsets:
#	150
#	16222
#	30750
#	48302
#	60775
#	79612
#	95050
#	109660
#	128520
#	141505
#
# Disc length: 2068 seconds
#
# Revision: 1
# Processed by: cddbd v1.5.1PL0 Copyright (c) Steve Scherf et al.
# Submitted via: CDex 1.40Beta8
#
DISCID=6f08120a
DTITLE=Mac McAnally - Word of Mouth
DYEAR=1999
DGENRE=Country
TTITLE0=Looking Back
TTITLE1=Cold Day in Hell
TTITLE2=Things To Do Today
TTITLE3=The Ass and the Hole
TTITLE4=Pop Top Hop
TTITLE5=Better Than the Good Old Days
TTITLE6=Out the Window
TTITLE7=The Way It Goes
TTITLE8=Just One Forever
TTITLE9=Against the Odds
EXTD=YEAR: 1999 ID3G: 2
EXTT0=
EXTT1=
EXTT2=
EXTT3=
EXTT4=
EXTT5=
EXTT6=
EXTT7=
EXTT8=
EXTT9=
PLAYORDER=
